<mxfile host="Electron" modified="2024-06-30T05:09:06.586Z" agent="Mozilla/5.0 (Macintosh; Intel Mac OS X 10_15_7) AppleWebKit/537.36 (KHTML, like Gecko) draw.io/21.4.0 Chrome/112.0.5615.204 Electron/24.5.1 Safari/537.36" etag="8_8XWnrdxSEHjEQMn1l9" version="21.4.0" type="device">
  <diagram name="bm25s" id="X_dmxuon5iHLcflGSG6y">
    <mxGraphModel dx="1771" dy="793" grid="1" gridSize="10" guides="1" tooltips="1" connect="1" arrows="1" fold="1" page="1" pageScale="1" pageWidth="850" pageHeight="1100" math="0" shadow="0">
      <root>
        <mxCell id="0" />
        <mxCell id="1" parent="0" />
        <mxCell id="aRVXNi4D5zHclcj6zNME-1" value="" style="edgeStyle=orthogonalEdgeStyle;rounded=0;orthogonalLoop=1;jettySize=auto;html=1;" edge="1" parent="1" source="aRVXNi4D5zHclcj6zNME-2" target="aRVXNi4D5zHclcj6zNME-7">
          <mxGeometry relative="1" as="geometry" />
        </mxCell>
        <mxCell id="aRVXNi4D5zHclcj6zNME-2" value="BERT Tokenizer" style="rounded=0;whiteSpace=wrap;html=1;" vertex="1" parent="1">
          <mxGeometry x="150" y="480" width="60" height="60" as="geometry" />
        </mxCell>
        <mxCell id="aRVXNi4D5zHclcj6zNME-3" value="" style="edgeStyle=orthogonalEdgeStyle;rounded=0;orthogonalLoop=1;jettySize=auto;html=1;curved=1;" edge="1" parent="1" source="aRVXNi4D5zHclcj6zNME-5" target="aRVXNi4D5zHclcj6zNME-2">
          <mxGeometry relative="1" as="geometry">
            <Array as="points">
              <mxPoint x="130" y="550" />
              <mxPoint x="130" y="510" />
            </Array>
          </mxGeometry>
        </mxCell>
        <mxCell id="aRVXNi4D5zHclcj6zNME-4" style="edgeStyle=orthogonalEdgeStyle;rounded=0;orthogonalLoop=1;jettySize=auto;html=1;curved=1;" edge="1" parent="1" source="aRVXNi4D5zHclcj6zNME-5" target="aRVXNi4D5zHclcj6zNME-9">
          <mxGeometry relative="1" as="geometry">
            <Array as="points">
              <mxPoint x="130" y="550" />
              <mxPoint x="130" y="590" />
            </Array>
          </mxGeometry>
        </mxCell>
        <mxCell id="aRVXNi4D5zHclcj6zNME-5" value="" style="rounded=0;whiteSpace=wrap;html=1;" vertex="1" parent="1">
          <mxGeometry x="50" y="520" width="60" height="60" as="geometry" />
        </mxCell>
        <mxCell id="aRVXNi4D5zHclcj6zNME-6" value="" style="edgeStyle=orthogonalEdgeStyle;rounded=0;orthogonalLoop=1;jettySize=auto;html=1;curved=1;" edge="1" parent="1" source="aRVXNi4D5zHclcj6zNME-7" target="aRVXNi4D5zHclcj6zNME-23">
          <mxGeometry relative="1" as="geometry">
            <mxPoint x="510" y="510" as="targetPoint" />
            <Array as="points">
              <mxPoint x="490" y="510" />
              <mxPoint x="490" y="430" />
            </Array>
          </mxGeometry>
        </mxCell>
        <mxCell id="aRVXNi4D5zHclcj6zNME-7" value="TF/IDF Index" style="rounded=0;whiteSpace=wrap;html=1;" vertex="1" parent="1">
          <mxGeometry x="390" y="480" width="60" height="60" as="geometry" />
        </mxCell>
        <mxCell id="aRVXNi4D5zHclcj6zNME-8" value="" style="edgeStyle=orthogonalEdgeStyle;rounded=0;orthogonalLoop=1;jettySize=auto;html=1;" edge="1" parent="1" source="aRVXNi4D5zHclcj6zNME-9" target="aRVXNi4D5zHclcj6zNME-11">
          <mxGeometry relative="1" as="geometry" />
        </mxCell>
        <mxCell id="aRVXNi4D5zHclcj6zNME-9" value="BERT Tokenizer" style="rounded=0;whiteSpace=wrap;html=1;" vertex="1" parent="1">
          <mxGeometry x="150" y="560" width="60" height="60" as="geometry" />
        </mxCell>
        <mxCell id="aRVXNi4D5zHclcj6zNME-10" style="edgeStyle=orthogonalEdgeStyle;rounded=0;orthogonalLoop=1;jettySize=auto;html=1;entryX=0;entryY=0.5;entryDx=0;entryDy=0;" edge="1" parent="1" source="aRVXNi4D5zHclcj6zNME-11" target="aRVXNi4D5zHclcj6zNME-13">
          <mxGeometry relative="1" as="geometry" />
        </mxCell>
        <mxCell id="aRVXNi4D5zHclcj6zNME-11" value="BERT Inference" style="rounded=0;whiteSpace=wrap;html=1;" vertex="1" parent="1">
          <mxGeometry x="230" y="560" width="60" height="60" as="geometry" />
        </mxCell>
        <mxCell id="aRVXNi4D5zHclcj6zNME-12" style="edgeStyle=orthogonalEdgeStyle;rounded=0;orthogonalLoop=1;jettySize=auto;html=1;" edge="1" parent="1" source="aRVXNi4D5zHclcj6zNME-13" target="aRVXNi4D5zHclcj6zNME-15">
          <mxGeometry relative="1" as="geometry" />
        </mxCell>
        <mxCell id="aRVXNi4D5zHclcj6zNME-13" value="Locality Sensitive Hashing" style="rounded=0;whiteSpace=wrap;html=1;" vertex="1" parent="1">
          <mxGeometry x="310" y="560" width="60" height="60" as="geometry" />
        </mxCell>
        <mxCell id="aRVXNi4D5zHclcj6zNME-14" style="edgeStyle=orthogonalEdgeStyle;rounded=0;orthogonalLoop=1;jettySize=auto;html=1;curved=1;" edge="1" parent="1" source="aRVXNi4D5zHclcj6zNME-15" target="aRVXNi4D5zHclcj6zNME-31">
          <mxGeometry relative="1" as="geometry">
            <mxPoint x="510" y="590" as="targetPoint" />
            <Array as="points">
              <mxPoint x="520" y="590" />
              <mxPoint x="520" y="520" />
            </Array>
          </mxGeometry>
        </mxCell>
        <mxCell id="aRVXNi4D5zHclcj6zNME-15" value="TF/IDF Index" style="rounded=0;whiteSpace=wrap;html=1;" vertex="1" parent="1">
          <mxGeometry x="390" y="560" width="60" height="60" as="geometry" />
        </mxCell>
        <mxCell id="aRVXNi4D5zHclcj6zNME-16" value="" style="rounded=0;whiteSpace=wrap;html=1;" vertex="1" parent="1">
          <mxGeometry x="40" y="510" width="60" height="60" as="geometry" />
        </mxCell>
        <mxCell id="aRVXNi4D5zHclcj6zNME-17" value="Document" style="rounded=0;whiteSpace=wrap;html=1;" vertex="1" parent="1">
          <mxGeometry x="30" y="500" width="60" height="60" as="geometry" />
        </mxCell>
        <mxCell id="aRVXNi4D5zHclcj6zNME-18" value="" style="edgeStyle=orthogonalEdgeStyle;rounded=0;orthogonalLoop=1;jettySize=auto;html=1;curved=1;" edge="1" parent="1" source="aRVXNi4D5zHclcj6zNME-19" target="aRVXNi4D5zHclcj6zNME-23">
          <mxGeometry relative="1" as="geometry">
            <mxPoint x="390" y="340" as="targetPoint" />
            <Array as="points">
              <mxPoint x="460" y="300" />
              <mxPoint x="460" y="410" />
            </Array>
          </mxGeometry>
        </mxCell>
        <mxCell id="aRVXNi4D5zHclcj6zNME-19" value="BERT Tokenizer" style="rounded=0;whiteSpace=wrap;html=1;" vertex="1" parent="1">
          <mxGeometry x="150" y="270" width="60" height="60" as="geometry" />
        </mxCell>
        <mxCell id="aRVXNi4D5zHclcj6zNME-20" value="" style="edgeStyle=orthogonalEdgeStyle;rounded=0;orthogonalLoop=1;jettySize=auto;html=1;curved=1;" edge="1" parent="1" source="aRVXNi4D5zHclcj6zNME-22" target="aRVXNi4D5zHclcj6zNME-19">
          <mxGeometry relative="1" as="geometry">
            <Array as="points">
              <mxPoint x="130" y="340" />
              <mxPoint x="130" y="300" />
            </Array>
          </mxGeometry>
        </mxCell>
        <mxCell id="aRVXNi4D5zHclcj6zNME-21" style="edgeStyle=orthogonalEdgeStyle;rounded=0;orthogonalLoop=1;jettySize=auto;html=1;curved=1;" edge="1" parent="1" source="aRVXNi4D5zHclcj6zNME-22" target="aRVXNi4D5zHclcj6zNME-25">
          <mxGeometry relative="1" as="geometry">
            <Array as="points">
              <mxPoint x="130" y="340" />
              <mxPoint x="130" y="390" />
            </Array>
          </mxGeometry>
        </mxCell>
        <mxCell id="aRVXNi4D5zHclcj6zNME-22" value="Query" style="rounded=0;whiteSpace=wrap;html=1;" vertex="1" parent="1">
          <mxGeometry x="40" y="310" width="60" height="60" as="geometry" />
        </mxCell>
        <mxCell id="aRVXNi4D5zHclcj6zNME-23" value="BM25" style="rounded=0;whiteSpace=wrap;html=1;" vertex="1" parent="1">
          <mxGeometry x="550" y="390" width="60" height="60" as="geometry" />
        </mxCell>
        <mxCell id="aRVXNi4D5zHclcj6zNME-24" value="" style="edgeStyle=orthogonalEdgeStyle;rounded=0;orthogonalLoop=1;jettySize=auto;html=1;" edge="1" parent="1" source="aRVXNi4D5zHclcj6zNME-25" target="aRVXNi4D5zHclcj6zNME-27">
          <mxGeometry relative="1" as="geometry" />
        </mxCell>
        <mxCell id="aRVXNi4D5zHclcj6zNME-25" value="BERT Tokenizer" style="rounded=0;whiteSpace=wrap;html=1;" vertex="1" parent="1">
          <mxGeometry x="150" y="350" width="60" height="60" as="geometry" />
        </mxCell>
        <mxCell id="aRVXNi4D5zHclcj6zNME-26" style="edgeStyle=orthogonalEdgeStyle;rounded=0;orthogonalLoop=1;jettySize=auto;html=1;entryX=0;entryY=0.5;entryDx=0;entryDy=0;" edge="1" parent="1" source="aRVXNi4D5zHclcj6zNME-27" target="aRVXNi4D5zHclcj6zNME-28">
          <mxGeometry relative="1" as="geometry" />
        </mxCell>
        <mxCell id="aRVXNi4D5zHclcj6zNME-27" value="BERT Inference" style="rounded=0;whiteSpace=wrap;html=1;" vertex="1" parent="1">
          <mxGeometry x="230" y="350" width="60" height="60" as="geometry" />
        </mxCell>
        <mxCell id="aRVXNi4D5zHclcj6zNME-28" value="Locality Sensitive Hashing" style="rounded=0;whiteSpace=wrap;html=1;" vertex="1" parent="1">
          <mxGeometry x="310" y="350" width="60" height="60" as="geometry" />
        </mxCell>
        <mxCell id="aRVXNi4D5zHclcj6zNME-29" style="edgeStyle=orthogonalEdgeStyle;rounded=0;orthogonalLoop=1;jettySize=auto;html=1;curved=1;" edge="1" parent="1" source="aRVXNi4D5zHclcj6zNME-28" target="aRVXNi4D5zHclcj6zNME-31">
          <mxGeometry relative="1" as="geometry">
            <mxPoint x="450" y="420" as="sourcePoint" />
            <Array as="points">
              <mxPoint x="470" y="380" />
              <mxPoint x="470" y="500" />
            </Array>
          </mxGeometry>
        </mxCell>
        <mxCell id="aRVXNi4D5zHclcj6zNME-30" value="&lt;b&gt;&lt;font style=&quot;font-size: 14px;&quot;&gt;S&lt;/font&gt;&lt;/b&gt;" style="edgeStyle=orthogonalEdgeStyle;rounded=0;orthogonalLoop=1;jettySize=auto;html=1;curved=1;" edge="1" parent="1" source="aRVXNi4D5zHclcj6zNME-31">
          <mxGeometry x="-0.2" y="-10" relative="1" as="geometry">
            <mxPoint x="670" y="470" as="targetPoint" />
            <Array as="points">
              <mxPoint x="670" y="510" />
            </Array>
            <mxPoint as="offset" />
          </mxGeometry>
        </mxCell>
        <mxCell id="aRVXNi4D5zHclcj6zNME-31" value="BM25" style="rounded=0;whiteSpace=wrap;html=1;" vertex="1" parent="1">
          <mxGeometry x="550" y="480" width="60" height="60" as="geometry" />
        </mxCell>
        <mxCell id="aRVXNi4D5zHclcj6zNME-32" value="" style="swimlane;startSize=0;" vertex="1" parent="1">
          <mxGeometry x="20" y="470" width="440" height="160" as="geometry" />
        </mxCell>
        <mxCell id="aRVXNi4D5zHclcj6zNME-33" value="" style="endArrow=none;dashed=1;html=1;rounded=0;" edge="1" parent="1" source="aRVXNi4D5zHclcj6zNME-39">
          <mxGeometry width="50" height="50" relative="1" as="geometry">
            <mxPoint x="320" y="500" as="sourcePoint" />
            <mxPoint x="300" y="380" as="targetPoint" />
          </mxGeometry>
        </mxCell>
        <mxCell id="aRVXNi4D5zHclcj6zNME-34" value="" style="endArrow=none;dashed=1;html=1;rounded=0;" edge="1" parent="1" source="aRVXNi4D5zHclcj6zNME-44">
          <mxGeometry width="50" height="50" relative="1" as="geometry">
            <mxPoint x="320" y="500" as="sourcePoint" />
            <mxPoint x="300" y="590" as="targetPoint" />
          </mxGeometry>
        </mxCell>
        <mxCell id="aRVXNi4D5zHclcj6zNME-35" value="BM25S: Neural Information Retrieval Model" style="swimlane;whiteSpace=wrap;html=1;" vertex="1" parent="1">
          <mxGeometry y="220" width="850" height="490" as="geometry" />
        </mxCell>
        <mxCell id="aRVXNi4D5zHclcj6zNME-36" style="edgeStyle=orthogonalEdgeStyle;rounded=0;orthogonalLoop=1;jettySize=auto;html=1;" edge="1" parent="aRVXNi4D5zHclcj6zNME-35" source="aRVXNi4D5zHclcj6zNME-37" target="aRVXNi4D5zHclcj6zNME-38">
          <mxGeometry relative="1" as="geometry" />
        </mxCell>
        <mxCell id="aRVXNi4D5zHclcj6zNME-37" value="" style="shape=sumEllipse;perimeter=ellipsePerimeter;whiteSpace=wrap;html=1;backgroundOutline=1;" vertex="1" parent="aRVXNi4D5zHclcj6zNME-35">
          <mxGeometry x="658" y="227" width="25" height="25" as="geometry" />
        </mxCell>
        <mxCell id="aRVXNi4D5zHclcj6zNME-38" value="Document Ranking" style="shape=document;whiteSpace=wrap;html=1;boundedLbl=1;" vertex="1" parent="aRVXNi4D5zHclcj6zNME-35">
          <mxGeometry x="710" y="199.75" width="80" height="79.5" as="geometry" />
        </mxCell>
        <mxCell id="aRVXNi4D5zHclcj6zNME-39" value="[CLS] and [SEP] are thrown away" style="text;html=1;align=center;verticalAlign=middle;resizable=0;points=[];autosize=1;strokeColor=none;fillColor=none;" vertex="1" parent="aRVXNi4D5zHclcj6zNME-35">
          <mxGeometry x="195" y="199.75" width="200" height="30" as="geometry" />
        </mxCell>
        <mxCell id="aRVXNi4D5zHclcj6zNME-40" value="&lt;b&gt;S&lt;/b&gt; coefficient controls contribution of&lt;br&gt;&quot;keyword&quot; vs &quot;semantic&quot; search" style="text;html=1;align=left;verticalAlign=middle;resizable=0;points=[];autosize=1;strokeColor=none;fillColor=none;" vertex="1" parent="aRVXNi4D5zHclcj6zNME-35">
          <mxGeometry x="630" y="390" width="210" height="40" as="geometry" />
        </mxCell>
        <mxCell id="aRVXNi4D5zHclcj6zNME-41" value="Input keyword domain" style="text;html=1;align=center;verticalAlign=middle;resizable=0;points=[];autosize=1;strokeColor=none;fillColor=none;" vertex="1" parent="aRVXNi4D5zHclcj6zNME-35">
          <mxGeometry x="560" y="110" width="140" height="30" as="geometry" />
        </mxCell>
        <mxCell id="aRVXNi4D5zHclcj6zNME-42" value="Semantic domain" style="text;html=1;align=center;verticalAlign=middle;resizable=0;points=[];autosize=1;strokeColor=none;fillColor=none;" vertex="1" parent="aRVXNi4D5zHclcj6zNME-35">
          <mxGeometry x="570" y="338" width="120" height="30" as="geometry" />
        </mxCell>
        <mxCell id="aRVXNi4D5zHclcj6zNME-43" value="&lt;div style=&quot;text-align: left;&quot;&gt;&lt;span style=&quot;background-color: initial;&quot;&gt;The document indexing process&lt;/span&gt;&lt;/div&gt;&lt;div style=&quot;text-align: left;&quot;&gt;&lt;span style=&quot;background-color: initial;&quot;&gt;performed once&lt;/span&gt;&lt;/div&gt;" style="text;html=1;align=center;verticalAlign=middle;resizable=0;points=[];autosize=1;strokeColor=none;fillColor=none;" vertex="1" parent="aRVXNi4D5zHclcj6zNME-35">
          <mxGeometry x="15" y="440" width="190" height="40" as="geometry" />
        </mxCell>
        <mxCell id="aRVXNi4D5zHclcj6zNME-44" value="[CLS] and [SEP] are thrown away" style="text;html=1;align=center;verticalAlign=middle;resizable=0;points=[];autosize=1;strokeColor=none;fillColor=none;" vertex="1" parent="aRVXNi4D5zHclcj6zNME-35">
          <mxGeometry x="210" y="420" width="200" height="30" as="geometry" />
        </mxCell>
        <mxCell id="aRVXNi4D5zHclcj6zNME-45" style="edgeStyle=orthogonalEdgeStyle;rounded=0;orthogonalLoop=1;jettySize=auto;html=1;curved=1;" edge="1" parent="1" source="aRVXNi4D5zHclcj6zNME-23">
          <mxGeometry relative="1" as="geometry">
            <mxPoint x="620" y="520" as="sourcePoint" />
            <mxPoint x="670" y="450" as="targetPoint" />
            <Array as="points">
              <mxPoint x="670" y="420" />
            </Array>
          </mxGeometry>
        </mxCell>
        <mxCell id="aRVXNi4D5zHclcj6zNME-46" value="&lt;font size=&quot;1&quot; style=&quot;&quot;&gt;&lt;b style=&quot;font-size: 14px;&quot;&gt;1 - S&lt;/b&gt;&lt;/font&gt;" style="edgeLabel;html=1;align=center;verticalAlign=middle;resizable=0;points=[];" vertex="1" connectable="0" parent="aRVXNi4D5zHclcj6zNME-45">
          <mxGeometry x="-0.2222" y="-5" relative="1" as="geometry">
            <mxPoint y="-15" as="offset" />
          </mxGeometry>
        </mxCell>
        <mxCell id="aRVXNi4D5zHclcj6zNME-47" value="" style="endArrow=none;dashed=1;html=1;rounded=0;" edge="1" parent="1" source="aRVXNi4D5zHclcj6zNME-23" target="aRVXNi4D5zHclcj6zNME-41">
          <mxGeometry width="50" height="50" relative="1" as="geometry">
            <mxPoint x="410" y="490" as="sourcePoint" />
            <mxPoint x="460" y="440" as="targetPoint" />
          </mxGeometry>
        </mxCell>
        <mxCell id="aRVXNi4D5zHclcj6zNME-48" value="" style="endArrow=none;dashed=1;html=1;rounded=0;" edge="1" parent="1" source="aRVXNi4D5zHclcj6zNME-31" target="aRVXNi4D5zHclcj6zNME-42">
          <mxGeometry width="50" height="50" relative="1" as="geometry">
            <mxPoint x="410" y="490" as="sourcePoint" />
            <mxPoint x="460" y="440" as="targetPoint" />
          </mxGeometry>
        </mxCell>
        <mxCell id="aRVXNi4D5zHclcj6zNME-49" value="" style="endArrow=none;dashed=1;html=1;rounded=0;" edge="1" parent="1" source="aRVXNi4D5zHclcj6zNME-43" target="aRVXNi4D5zHclcj6zNME-32">
          <mxGeometry width="50" height="50" relative="1" as="geometry">
            <mxPoint x="400" y="530" as="sourcePoint" />
            <mxPoint x="450" y="480" as="targetPoint" />
          </mxGeometry>
        </mxCell>
        <mxCell id="aRVXNi4D5zHclcj6zNME-51" value="" style="swimlane;startSize=0;" vertex="1" parent="1">
          <mxGeometry x="-10" y="210" width="870" height="510" as="geometry" />
        </mxCell>
      </root>
    </mxGraphModel>
  </diagram>
</mxfile>
